<svg width="26" height="27" viewBox="0 0 26 27" fill="none" xmlns="http://www.w3.org/2000/svg">
<rect x="1" y="3.93225" width="24" height="22.0677" rx="4" stroke="white" stroke-width="2"/>
<rect y="10" width="26" height="2" fill="white"/>
<path d="M16.25 1.21875C16.25 0.545653 16.7957 0 17.4688 0C18.1418 0 18.6875 0.545653 18.6875 1.21875V6.78125C18.6875 7.45435 18.1418 8 17.4688 8C16.7957 8 16.25 7.45435 16.25 6.78125V1.21875Z" fill="white"/>
<path d="M7.3125 1.21875C7.3125 0.545653 7.85815 0 8.53125 0C9.20435 0 9.75 0.545653 9.75 1.21875V6.78125C9.75 7.45435 9.20435 8 8.53125 8C7.85815 8 7.3125 7.45435 7.3125 6.78125V1.21875Z" fill="white"/>
</svg>
