<svg width="32" height="29" viewBox="0 0 32 29" fill="none" xmlns="http://www.w3.org/2000/svg">
<rect x="12.8401" y="19.7199" width="5.68" height="7.7666" rx="2" stroke="white" stroke-width="2"/>
<path d="M27.1995 22.8827L27.1946 23.0888C27.0907 25.1339 25.4508 26.7733 23.4055 26.8769L23.1995 26.8827H20.8284V24.8827H23.1995C24.304 24.8827 25.1994 23.9872 25.1995 22.8827V11.5653H6.80005V22.8827C6.80015 23.9872 7.69554 24.8827 8.80005 24.8827H10.5891V26.8827H8.80005L8.59399 26.8769C6.54893 26.7731 4.90879 25.1338 4.80493 23.0888L4.80005 22.8827V9.56534H27.1995V22.8827Z" fill="white"/>
<path d="M14.9551 1.28433C15.5973 0.899211 16.4016 0.90549 17.0381 1.29996L25.6172 6.61734C27.3232 7.67463 26.5831 10.3054 24.5762 10.3175L6.95508 10.422C4.92047 10.4338 4.16998 7.75273 5.91504 6.70621L14.9551 1.28433Z" stroke="white" stroke-width="2"/>
</svg>
