<svg width="27" height="29" viewBox="0 0 27 29" fill="none" xmlns="http://www.w3.org/2000/svg">
<path d="M14.043 18.3993C21.0991 18.6668 26.7107 23.0278 26.7109 28.3681L26.7061 28.6259C26.7018 28.7512 26.693 28.8758 26.6826 28.9999H24.6719C24.6961 28.7899 24.7109 28.5793 24.7109 28.3681C24.7108 26.3855 23.6397 24.4354 21.6016 22.912C19.5629 21.3884 16.654 20.3867 13.3555 20.3866C10.057 20.3866 7.14805 21.3884 5.10938 22.912C3.07122 24.4354 2.00014 26.3855 2 28.3681C2 28.5793 2.01487 28.7899 2.03906 28.9999H0.0273438C0.00987448 28.7909 3.39856e-06 28.5803 0 28.3681C0.000281345 22.8554 5.97972 18.3866 13.3555 18.3866L14.043 18.3993Z" fill="white"/>
<circle cx="13.4934" cy="8.15131" r="7.15131" stroke="white" stroke-width="2"/>
</svg>
