<svg width="57" height="59" viewBox="0 0 57 59" fill="none" xmlns="http://www.w3.org/2000/svg">
<g filter="url(#filter0_d_43_294)">
<path d="M28.043 32.3993C35.0991 32.6668 40.7107 37.0278 40.7109 42.3681L40.7061 42.6259C40.7018 42.7512 40.693 42.8758 40.6826 42.9999H38.6719C38.6961 42.7899 38.7109 42.5793 38.7109 42.3681C38.7108 40.3855 37.6397 38.4354 35.6016 36.912C33.5629 35.3884 30.654 34.3867 27.3555 34.3866C24.057 34.3866 21.148 35.3884 19.1094 36.912C17.0712 38.4354 16.0001 40.3855 16 42.3681C16 42.5793 16.0149 42.7899 16.0391 42.9999H14.0273C14.0099 42.7909 14 42.5803 14 42.3681C14.0003 36.8554 19.9797 32.3866 27.3555 32.3866L28.043 32.3993Z" fill="#76FFCE"/>
<circle cx="27.4934" cy="22.1513" r="7.15131" stroke="#76FFCE" stroke-width="2"/>
</g>
<defs>
<filter id="filter0_d_43_294" x="0" y="0" width="56.7109" height="58.9999" filterUnits="userSpaceOnUse" color-interpolation-filters="sRGB">
<feFlood flood-opacity="0" result="BackgroundImageFix"/>
<feColorMatrix in="SourceAlpha" type="matrix" values="0 0 0 0 0 0 0 0 0 0 0 0 0 0 0 0 0 0 127 0" result="hardAlpha"/>
<feOffset dx="1" dy="1"/>
<feGaussianBlur stdDeviation="7.5"/>
<feComposite in2="hardAlpha" operator="out"/>
<feColorMatrix type="matrix" values="0 0 0 0 0.375 0 0 0 0 1 0 0 0 0 0.775641 0 0 0 0.6 0"/>
<feBlend mode="normal" in2="BackgroundImageFix" result="effect1_dropShadow_43_294"/>
<feBlend mode="normal" in="SourceGraphic" in2="effect1_dropShadow_43_294" result="shape"/>
</filter>
</defs>
</svg>
