<svg width="59" height="53" viewBox="0 0 59 53" fill="none" xmlns="http://www.w3.org/2000/svg">
<rect x="25.4299" y="32.4894" width="7.36" height="9.51063" rx="2" stroke="#00A98A" stroke-width="2"/>
<path d="M43.1499 37.1093L43.145 37.3153C43.0414 39.3606 41.4012 41.0006 39.356 41.1044L39.1499 41.1093H35.3853V39.1093H39.1499C40.2544 39.1092 41.1499 38.2138 41.1499 37.1093V22.7001H17.8501V37.1093C17.8501 38.2138 18.7455 39.1093 19.8501 39.1093H22.9048V41.1093H19.8501C17.641 41.1093 15.8501 39.3184 15.8501 37.1093V20.7001H43.1499V37.1093Z" fill="#00A98A"/>
<path d="M28.4834 10.5734C29.1126 10.2085 29.8907 10.2143 30.5146 10.588L42.9453 18.0382C44.6805 19.0781 43.9516 21.7424 41.9287 21.754L16.4004 21.8995C14.3505 21.911 13.6126 19.1986 15.3857 18.17L28.4834 10.5734Z" stroke="#00A98A" stroke-width="2"/>
</svg>
