<svg width="18" height="20" viewBox="0 0 18 20" fill="none" xmlns="http://www.w3.org/2000/svg">
<path d="M4.66641 0.466362C3.75349 -0.155452 2.27336 -0.155452 1.36044 0.466362C0.447522 1.08818 0.447522 2.09633 1.36044 2.71815L3.01343 1.59225L4.66641 0.466362ZM12.5733 10.3555L14.2263 11.4814L17.5323 9.22965L15.8793 8.10376L14.2263 9.22965L12.5733 10.3555ZM3.01343 1.59225L1.36044 2.71815L12.5733 10.3555L14.2263 9.22965L15.8793 8.10376L4.66641 0.466362L3.01343 1.59225Z" fill="#122033"/>
<path d="M15.9815 10.4257L17.643 9.29399L14.3549 7.05306L12.6934 8.1848L14.3374 9.30527L15.9815 10.4257ZM0.693355 16.3583C-0.224306 16.9834 -0.232153 17.9917 0.675829 18.6105C1.58381 19.2293 3.06379 19.2243 3.98145 18.5992L2.3374 17.4788L0.693355 16.3583ZM14.3374 9.30527L12.6934 8.1848L0.693355 16.3583L2.3374 17.4788L3.98145 18.5992L15.9815 10.4257L14.3374 9.30527Z" fill="#122033"/>
</svg>
