<svg width="29" height="32" viewBox="0 0 29 32" fill="none" xmlns="http://www.w3.org/2000/svg">
<mask id="path-1-inside-1-light-library" fill="white">
<path d="M0 2C0 0.895431 0.89543 0 2 0H26.9524C28.057 0 28.9524 0.895431 28.9524 2V23C28.9524 27.9706 24.9229 32 19.9524 32H2C0.89543 32 0 31.1046 0 30V2Z"/>
</mask>
<path d="M0 2C0 0.895431 0.89543 0 2 0H26.9524C28.057 0 28.9524 0.895431 28.9524 2V23C28.9524 27.9706 24.9229 32 19.9524 32H2C0.89543 32 0 31.1046 0 30V2Z" stroke="#122033" stroke-width="6" mask="url(#path-1-inside-1-light-library)"/>
<rect x="6" y="5" width="17" height="4" rx="1" fill="#122033"/>
<rect x="6" y="11" width="17" height="4" rx="1" fill="#122033"/>
<rect x="6" y="17" width="17" height="4" rx="1" fill="#122033"/>
<path d="M12 25C12 24.4477 12.4477 24 13 24H22.7936C23.1443 24 23.4286 24.2843 23.4286 24.6349C23.4286 26.3882 22.0073 27.8095 20.254 27.8095H13C12.4477 27.8095 12 27.3618 12 26.8095V25Z" fill="#122033"/>
</svg>
