<svg width="34" height="34" viewBox="0 0 34 34" fill="none" xmlns="http://www.w3.org/2000/svg">
<circle cx="17" cy="17" r="15" stroke="#122033" stroke-width="3"/>
<path d="M13.6 12.75C13.6 10.35 15.5332 8.5 17.9692 8.5C20.2948 8.5 22.2 10.1529 22.2 12.3167C22.2 13.6668 21.6477 14.9329 20.1001 16.1422C18.8931 17.0856 18.5615 17.6386 18.5615 18.75V19.4H15.6615V18.4688C15.6615 16.5267 16.4825 15.4433 18.0541 14.2737C19.0718 13.5174 19.3 12.9634 19.3 12.3154C19.3 11.3735 18.632 10.775 17.6594 10.775C16.6292 10.775 15.95 11.4403 15.95 12.75H13.6Z" fill="#122033"/>
<circle cx="17.1" cy="24.9" r="1.9" fill="#122033"/>
</svg>
