<svg width="28" height="22" viewBox="0 0 28 22" fill="none" xmlns="http://www.w3.org/2000/svg">
<rect x="2.61719" y="8.13901" width="25" height="4" fill="white"/>
<path d="M8.39873 0.626491C9.12142 -0.208849 10.2931 -0.208849 11.0158 0.626491C11.7385 1.46183 11.7385 2.81618 11.0158 3.65152L9.70728 2.13901L8.39873 0.626491ZM3.99539 11.7663L2.68685 13.2788L0.0697537 10.2537L1.3783 8.74123L2.68685 10.2537L3.99539 11.7663ZM9.70728 2.13901L11.0158 3.65152L3.99539 11.7663L2.68685 10.2537L1.3783 8.74123L8.39873 0.626491L9.70728 2.13901Z" fill="white"/>
<path d="M1.30584 11.8495L-7.05228e-05 10.34L2.62263 7.3092L3.92854 8.81866L2.61719 10.3341L1.30584 11.8495ZM11.4418 17.503C12.163 18.3367 12.1606 19.691 11.4363 20.5279C10.7121 21.3648 9.54031 21.3675 8.81908 20.5339L10.1304 19.0184L11.4418 17.503ZM2.61719 10.3341L3.92854 8.81866L11.4418 17.503L10.1304 19.0184L8.81908 20.5339L1.30584 11.8495L2.61719 10.3341Z" fill="white"/>
</svg>
