<svg width="59" height="53" viewBox="0 0 59 53" fill="none" xmlns="http://www.w3.org/2000/svg">
<g clip-path="url(#clip0_71_25)">
<g filter="url(#filter0_d_71_25)">
<rect x="17" y="16.9323" width="24" height="22.0677" rx="4" stroke="#76FFCE" stroke-width="2"/>
<rect x="16" y="23" width="26" height="2" fill="#76FFCE"/>
<path d="M32.25 14.2188C32.25 13.5457 32.7957 13 33.4688 13V13C34.1418 13 34.6875 13.5457 34.6875 14.2188V19.7812C34.6875 20.4543 34.1418 21 33.4688 21V21C32.7957 21 32.25 20.4543 32.25 19.7812V14.2188Z" fill="#76FFCE"/>
<path d="M23.3125 14.2188C23.3125 13.5457 23.8582 13 24.5312 13V13C25.2043 13 25.75 13.5457 25.75 14.2188V19.7812C25.75 20.4543 25.2043 21 24.5312 21V21C23.8582 21 23.3125 20.4543 23.3125 19.7812V14.2188Z" fill="#76FFCE"/>
</g>
</g>
<defs>
<filter id="filter0_d_71_25" x="2" y="-1" width="56" height="57" filterUnits="userSpaceOnUse" color-interpolation-filters="sRGB">
<feFlood flood-opacity="0" result="BackgroundImageFix"/>
<feColorMatrix in="SourceAlpha" type="matrix" values="0 0 0 0 0 0 0 0 0 0 0 0 0 0 0 0 0 0 127 0" result="hardAlpha"/>
<feOffset dx="1" dy="1"/>
<feGaussianBlur stdDeviation="7.5"/>
<feComposite in2="hardAlpha" operator="out"/>
<feColorMatrix type="matrix" values="0 0 0 0 0.375 0 0 0 0 1 0 0 0 0 0.775641 0 0 0 0.6 0"/>
<feBlend mode="normal" in2="BackgroundImageFix" result="effect1_dropShadow_71_25"/>
<feBlend mode="normal" in="SourceGraphic" in2="effect1_dropShadow_71_25" result="shape"/>
</filter>
<clipPath id="clip0_71_25">
<rect width="59" height="53" fill="white"/>
</clipPath>
</defs>
</svg>
