<svg width="59" height="53" viewBox="0 0 59 53" fill="none" xmlns="http://www.w3.org/2000/svg">
<rect x="17" y="16.9323" width="24" height="22.0677" rx="4" stroke="white" stroke-width="2"/>
<rect x="16" y="23" width="26" height="2" fill="white"/>
<path d="M32.25 14.2188C32.25 13.5457 32.7957 13 33.4688 13C34.1418 13 34.6875 13.5457 34.6875 14.2188V19.7812C34.6875 20.4543 34.1418 21 33.4688 21C32.7957 21 32.25 20.4543 32.25 19.7812V14.2188Z" fill="white"/>
<path d="M23.3125 14.2188C23.3125 13.5457 23.8582 13 24.5312 13C25.2043 13 25.75 13.5457 25.75 14.2188V19.7812C25.75 20.4543 25.2043 21 24.5312 21C23.8582 21 23.3125 20.4543 23.3125 19.7812V14.2188Z" fill="white"/>
</svg>
