<svg width="59" height="53" viewBox="0 0 59 53" fill="none" xmlns="http://www.w3.org/2000/svg">
<path d="M30.043 31.3994C37.0991 31.6668 42.7107 36.0278 42.7109 41.3681L42.7061 41.6259C42.7018 41.7512 42.693 41.8758 42.6826 41.9999H40.6719C40.6961 41.7899 40.7109 41.5793 40.7109 41.3681C40.7108 39.3855 39.6397 37.4354 37.6016 35.912C35.5629 34.3884 32.654 33.3867 29.3555 33.3867C26.057 33.3867 23.148 34.3885 21.1094 35.912C19.0712 37.4354 18.0001 39.3855 18 41.3681C18 41.5793 18.0149 41.7899 18.0391 41.9999H16.0273C16.0099 41.791 16 41.5804 16 41.3681C16.0003 35.8555 21.9797 31.3867 29.3555 31.3867L30.043 31.3994Z" fill="white"/>
<circle cx="29.4934" cy="21.1513" r="7.15131" stroke="white" stroke-width="2"/>
</svg>
